<svg version="1.1" xmlns="http://www.w3.org/2000/svg" viewBox="-255.99999923706054 -995.3280517578125 4180.99228515625 2547.712121582031"><desc>Created with Snap</desc><defs></defs><g><g><g transform="matrix(1.024,0,0,-1.024,0,0)"><path d="M50 0L50 29Q86 29 102 33Q118 38 122 49Q127 60 127 85L127 574Q127 600 122 611Q117 622 101 626Q86 631 50 631L50 660L319 660Q418 660 474 619Q530 578 530 497Q530 429 491 387Q453 345 388 330L388 328Q439 313 463 279Q488 245 499 175L505 138Q515 82 533 55Q551 29 589 29L589 0L459 0Q433 24 419 92L395 215Q385 265 358 287Q332 310 280 310L219 310L219 85Q219 60 224 48Q229 37 246 33Q263 29 301 29L301 0L50 0ZM219 346L282 346Q358 346 394 379Q430 413 430 485Q430 557 393 591Q356 625 280 625Q242 625 230 616Q219 608 219 588L219 346ZM1077 41L1084 16Q1065 4 1045 -3Q1025 -10 993 -10Q963 -10 947 2Q932 14 929 54Q892 22 857 5Q822 -11 779 -11Q724 -11 689 14Q655 40 655 89Q655 159 726 211Q797 263 929 284L929 342Q929 393 908 418Q888 443 838 443Q803 443 775 430Q747 417 747 404Q747 397 756 389Q766 382 771 374Q777 367 777 352Q777 331 765 318Q753 306 731 306Q708 306 694 320Q681 334 681 359Q681 390 701 417Q722 444 763 461Q805 478 865 478Q941 478 977 447Q1013 416 1013 339L1013 102Q1013 63 1021 48Q1030 34 1049 34Q1061 34 1077 41ZM745 113Q745 78 765 60Q785 43 823 43Q851 43 876 55Q902 67 929 87L929 252Q836 232 790 198Q745 165 745 113ZM1205 561Q1181 561 1165 576Q1150 592 1150 616Q1150 640 1165 656Q1181 672 1205 672Q1229 672 1244 656Q1260 640 1260 617Q1260 593 1244 577Q1229 561 1205 561ZM1115 -212Q1070 -212 1046 -193Q1022 -174 1022 -143Q1022 -119 1035 -105Q1048 -91 1068 -91Q1086 -91 1098 -102Q1111 -113 1112 -133Q1112 -142 1107 -150Q1103 -158 1103 -164Q1103 -173 1110 -177Q1117 -181 1127 -181Q1147 -181 1155 -164Q1164 -147 1164 -108L1164 381Q1164 407 1158 415Q1153 424 1135 424L1101 424L1101 454L1224 474L1250 474L1250 2Q1250 -100 1220 -156Q1191 -212 1115 -212ZM1807 41L1814 16Q1795 4 1775 -3Q1755 -10 1723 -10Q1693 -10 1677 2Q1662 14 1659 54Q1622 22 1587 5Q1552 -11 1509 -11Q1454 -11 1419 14Q1385 40 1385 89Q1385 159 1456 211Q1527 263 1659 284L1659 342Q1659 393 1638 418Q1618 443 1568 443Q1533 443 1505 430Q1477 417 1477 404Q1477 397 1486 389Q1496 382 1501 374Q1507 367 1507 352Q1507 331 1495 318Q1483 306 1461 306Q1438 306 1424 320Q1411 334 1411 359Q1411 390 1431 417Q1452 444 1493 461Q1535 478 1595 478Q1671 478 1707 447Q1743 416 1743 339L1743 102Q1743 63 1751 48Q1760 34 1779 34Q1791 34 1807 41ZM1475 113Q1475 78 1495 60Q1515 43 1553 43Q1581 43 1606 55Q1632 67 1659 87L1659 252Q1566 232 1520 198Q1475 165 1475 113ZM2136 480Q2172 480 2191 459Q2211 438 2211 401Q2211 371 2197 354Q2183 337 2154 337Q2129 337 2115 350Q2102 363 2102 384Q2102 396 2106 404Q2110 412 2118 421Q2126 430 2126 435Q2126 444 2113 444Q2094 444 2072 425Q2051 406 2035 373Q2019 341 2015 303L2015 83Q2015 57 2019 46Q2024 36 2039 32Q2054 29 2090 29L2090 0L1861 0L1861 29Q1894 29 1908 33Q1922 37 1925 47Q1929 57 1929 83L1929 381Q1929 407 1923 415Q1917 424 1900 424L1866 424L1866 454L1984 474L2012 474L2012 380L2013 380Q2035 422 2063 451Q2091 480 2136 480ZM2692 41L2699 16Q2680 4 2660 -3Q2640 -10 2608 -10Q2578 -10 2562 2Q2547 14 2544 54Q2507 22 2472 5Q2437 -11 2394 -11Q2339 -11 2304 14Q2270 40 2270 89Q2270 159 2341 211Q2412 263 2544 284L2544 342Q2544 393 2523 418Q2503 443 2453 443Q2418 443 2390 430Q2362 417 2362 404Q2362 397 2371 389Q2381 382 2386 374Q2392 367 2392 352Q2392 331 2380 318Q2368 306 2346 306Q2323 306 2309 320Q2296 334 2296 359Q2296 390 2316 417Q2337 444 2378 461Q2420 478 2480 478Q2556 478 2592 447Q2628 416 2628 339L2628 102Q2628 63 2636 48Q2645 34 2664 34Q2676 34 2692 41ZM2360 113Q2360 78 2380 60Q2400 43 2438 43Q2466 43 2491 55Q2517 67 2544 87L2544 252Q2451 232 2405 198Q2360 165 2360 113ZM3464 83Q3464 58 3468 47Q3472 36 3486 32Q3500 29 3533 29L3533 0L3314 0L3314 29Q3346 29 3359 32Q3372 36 3376 46Q3380 56 3380 81L3380 324Q3380 373 3360 402Q3340 431 3295 431Q3260 431 3233 411Q3206 392 3182 358L3182 83Q3182 58 3186 47Q3190 37 3203 33Q3217 29 3248 29L3248 0L3032 0L3032 29Q3064 29 3077 32Q3090 36 3094 46Q3098 56 3098 81L3098 324Q3098 373 3078 402Q3058 431 3013 431Q2950 431 2900 361L2900 81Q2900 56 2904 45Q2908 35 2921 32Q2934 29 2965 29L2965 0L2746 0L2746 29Q2779 29 2793 33Q2807 37 2810 47Q2814 57 2814 83L2814 381Q2814 407 2808 415Q2802 424 2785 424L2751 424L2751 454L2869 474L2897 474L2897 402L2898 402Q2964 479 3056 479Q3106 479 3137 457Q3168 435 3178 398Q3240 479 3338 479Q3402 479 3433 443Q3464 408 3464 335L3464 83Z" fill="#143d59" style=""></path></g></g><g transform="matrix(1,0,0,1,898.0481,1232.896)"><g transform="matrix(1.024,0,0,-1.024,0,0)"><path d="M50 0L50 29Q86 29 102 33Q118 38 122 49Q127 60 127 85L127 574Q127 600 122 611Q117 622 101 626Q86 631 50 631L50 660L298 660Q419 660 478 609Q538 558 538 472Q538 381 475 324Q413 268 288 268L219 268L219 85Q219 59 224 48Q230 37 248 33Q266 29 307 29L307 0L50 0ZM219 305L282 305Q438 305 438 466Q438 546 399 585Q360 625 279 625Q242 625 230 616Q219 608 219 590L219 305ZM1042 41L1049 16Q1030 4 1010 -3Q990 -10 958 -10Q928 -10 912 2Q897 14 894 54Q857 22 822 5Q787 -11 744 -11Q689 -11 654 14Q620 40 620 89Q620 159 691 211Q762 263 894 284L894 342Q894 393 873 418Q853 443 803 443Q768 443 740 430Q712 417 712 404Q712 397 721 389Q731 382 736 374Q742 367 742 352Q742 331 730 318Q718 306 696 306Q673 306 659 320Q646 334 646 359Q646 390 666 417Q687 444 728 461Q770 478 830 478Q906 478 942 447Q978 416 978 339L978 102Q978 63 986 48Q995 34 1014 34Q1026 34 1042 41ZM710 113Q710 78 730 60Q750 43 788 43Q816 43 841 55Q867 67 894 87L894 252Q801 232 755 198Q710 165 710 113ZM1545 83Q1545 58 1549 47Q1553 37 1567 33Q1581 29 1614 29L1614 0L1395 0L1395 29Q1427 29 1440 32Q1453 36 1457 46Q1461 56 1461 81L1461 324Q1461 372 1438 401Q1416 431 1368 431Q1329 431 1302 412Q1275 394 1250 360L1250 81Q1250 56 1254 45Q1258 35 1271 32Q1284 29 1315 29L1315 0L1096 0L1096 29Q1129 29 1143 33Q1157 37 1160 47Q1164 57 1164 83L1164 381Q1164 407 1158 415Q1152 424 1135 424L1101 424L1101 454L1219 474L1247 474L1247 400L1248 400Q1282 440 1321 459Q1360 479 1410 479Q1545 479 1545 335L1545 83ZM2150 29L2176 29L2176 0L2036 0L2029 48Q1997 22 1961 5Q1925 -12 1876 -12Q1788 -12 1741 49Q1695 110 1695 226Q1695 355 1751 417Q1807 479 1907 479Q1972 479 2023 440L2023 444L2026 444L2026 596Q2026 623 2020 632Q2014 641 1996 641L1960 641L1960 670L2083 692L2110 692L2110 76Q2110 48 2118 38Q2127 29 2150 29ZM1789 238Q1789 30 1911 30Q1944 30 1970 45Q1996 60 2026 87L2026 397Q1977 448 1918 448Q1854 448 1821 398Q1789 348 1789 238ZM2656 239L2656 230L2338 230Q2340 137 2371 83Q2403 29 2483 29Q2541 29 2575 59Q2609 89 2625 136L2653 124Q2632 63 2588 26Q2544 -11 2457 -11Q2350 -11 2297 51Q2245 113 2245 229Q2245 348 2299 413Q2353 479 2458 479Q2656 479 2656 239ZM2338 262L2563 262Q2563 357 2540 402Q2517 448 2459 448Q2400 448 2371 401Q2342 355 2338 262Z" fill="#143d59" style=""></path></g></g></g></svg>